<svg version="1.1" xmlns="http://www.w3.org/2000/svg" viewBox="-120.98237939425478 -143.05732910180996 242.000002 296.50036286124566" fill="none" stroke="black" stroke-width="0.6%" vector-effect="non-scaling-stroke">
    <path d="M 100.01762 28.87834 A 120 63.14808 360 0 1 120.01762 63.78476 A 120 63.14808 360 1 1 -119.98238 63.78476 A 120 63.14808 360 0 1 -99.98238 28.87834" />
    <path d="M -119.98238 89.29495 A 120 63.14808 180 1 0 120.01762 89.29495" />
    <path d="M 100.01762 39.66968 A 110 57.88574 360 0 1 110.01762 63.78476 A 110 57.88574 360 1 1 -109.98238 63.78476 A 110 57.88574 360 0 1 -99.98238 39.66968" />
    <path d="M 100.01762 60.92818 A 110 57.88574 360 0 1 108.14723 74.414" />
    <path d="M -108.11199 74.414 A 110 57.88574 360 0 1 -99.98238 60.92818" />
    <path d="M 100.01762 -86.72539 A 100 52.6234 360 1 1 -99.98238 -86.72539 L -99.98238 78.24053 A 100 52.6234 180 0 0 -96.9377 91.12698" />
    <path d="M 96.97295 91.12698 A 100 52.6234 180 0 0 100.01762 78.24053" />
    <path d="M -68.5753 -125.36859 A 97 51.0447 360 1 1 -85.10789 -113.74854 A 97 51.0447 360 0 1 -68.5753 -125.36859 Z" />
    <path d="M -65.74672 -123.88025 A 93 48.93976 360 1 1 -81.59756 -112.73938 A 93 48.93976 360 0 1 -65.74672 -123.88025 Z" />
    <path d="M -63.62529 -120.21298 A 90 47.36106 360 0 1 90.01762 -86.72539 C 90.02 -86.51 90.01 -86.3 90.00866 -86.08753 C 90 -85.87 89.99 -85.66 89.98184 -85.44969 C 89.97 -85.24 89.96 -85.02 89.93713 -84.81188 C 89.92 -84.6 89.9 -84.39 89.87451 -84.17408 C 89.85 -83.96 89.82 -83.75 89.79395 -83.53631 C 89.76 -83.32 89.73 -83.11 89.69542 -82.8986 C 89.66 -82.69 89.62 -82.47 89.57888 -82.26095 C 89.54 -82.05 89.49 -81.84 89.44431 -81.62342 C 89.4 -81.41 89.35 -81.2 89.29165 -80.98605 C 89.24 -80.77 89.18 -80.56 89.12088 -80.34888 C 89.06 -80.14 89 -79.92 88.93195 -79.71199 C 88.87 -79.5 88.8 -79.29 88.72483 -79.07543 C 88.65 -78.86 88.58 -78.65 88.49947 -78.4393 C 88.42 -78.23 88.34 -78.02 88.25581 -77.80366 C 88.17 -77.59 88.08 -77.38 87.99382 -77.16863 C 87.9 -76.96 87.81 -76.75 87.71345 -76.53431 C 87.64 -76.38 87.57 -76.22 87.49357 -76.06427 C 87.42 -75.91 87.34 -75.75 87.26357 -75.59474 C 87.19 -75.44 87.11 -75.28 87.02344 -75.12578 C 86.94 -74.97 86.86 -74.81 86.77318 -74.65743 C 86.69 -74.5 86.6 -74.35 86.51277 -74.18977 C 86.42 -74.03 86.33 -73.88 86.24223 -73.72285 C 86.15 -73.57 86.06 -73.41 85.96155 -73.25673 C 85.87 -73.1 85.77 -72.95 85.67074 -72.79148 C 85.28 -72.17 84.85 -71.55 84.40637 -70.94046 C 83.96 -70.33 83.48 -69.72 82.98093 -69.10875 C 80.33 -65.9 76.92 -62.8 72.84613 -59.92383 C 63.77 -53.5 51.34 -48.25 37.18247 -44.94276 C 14.37 -39.52 -12.82 -39.41 -35.797 -44.63311 C -68.77 -51.72 -90.67 -69.88 -89.98238 -86.72539 A 90 47.36106 360 0 1 -63.62529 -120.21298 Z" />
    <path d="M -119.98238 63.78476 L -119.98238 89.29495" />
    <path d="M 120.01762 63.78476 L 120.01762 89.29495" />
    <path d="M 100.01762 -86.72539 L 100.01762 78.24053" />
    <path d="M -99.98238 78.24053 C -99.98 78.5 -99.98 78.77 -99.9719 79.03262 C -99.96 79.3 -99.95 79.56 -99.94039 79.82447 C -99.93 80.09 -99.91 80.35 -99.88787 80.61581 C -99.87 80.88 -99.84 81.14 -99.81439 81.40638 C -99.79 81.67 -99.75 81.93 -99.72 82.1959 C -99.69 82.46 -99.65 82.72 -99.60475 82.98413 C -99.56 83.25 -99.52 83.51 -99.46872 83.77083 C -99.42 84.03 -99.37 84.29 -99.31196 84.55575 C -99.26 84.82 -99.2 85.08 -99.13456 85.33867 C -99.07 85.6 -99.01 85.86 -98.93661 86.11936 C -98.87 86.38 -98.79 86.64 -98.71821 86.8976 C -98.64 87.16 -98.56 87.42 -98.47946 87.67317 C -98.4 87.93 -98.31 88.19 -98.22047 88.44589 C -98.13 88.7 -98.04 88.96 -97.94136 89.21554 C -97.84 89.47 -97.75 89.73 -97.64226 89.98194 C -97.54 90.24 -97.43 90.49 -97.32331 90.74491" />
    <path d="M 97.35855 90.74491 C 97.47 90.49 97.57 90.24 97.6775 89.98194 C 97.78 89.73 97.88 89.47 97.9766 89.21554 C 98.07 88.96 98.17 88.7 98.25571 88.44589 C 98.35 88.19 98.43 87.93 98.5147 87.67318 C 98.6 87.42 98.68 87.16 98.75345 86.8976 C 98.83 86.64 98.9 86.38 98.97185 86.11936 C 99.04 85.86 99.11 85.6 99.1698 85.33867 C 99.23 85.08 99.29 84.82 99.3472 84.55575 C 99.4 84.29 99.46 84.03 99.50396 83.77083 C 99.55 83.51 99.6 83.25 99.64 82.98413 C 99.68 82.72 99.72 82.46 99.75524 82.1959 C 99.79 81.93 99.82 81.67 99.84964 81.40638 C 99.88 81.14 99.9 80.88 99.92311 80.61581 C 99.94 80.35 99.96 80.09 99.97563 79.82447 C 99.99 79.56 100 79.3 100.00714 79.03262 C 100.01 78.77 100.02 78.5 100.01762 78.24053" />
    <path d="M 100.01762 -86.72539 C 100.02 -87.02 100.01 -87.32 100.00417 -87.62246 C 100 -87.92 99.98 -88.22 99.96375 -88.51917 C 99.95 -88.82 99.92 -89.12 99.8964 -89.41514 C 99.87 -89.71 99.84 -90.01 99.80219 -90.30998 C 99.77 -90.61 99.73 -90.91 99.68119 -91.20331 C 99.64 -91.5 99.59 -91.8 99.5335 -92.09478 C 99.48 -92.39 99.42 -92.69 99.3592 -92.98404 C 99.3 -93.28 99.23 -93.58 99.15843 -93.87074 C 99.09 -94.17 99.01 -94.46 98.9313 -94.75457 C 98.85 -95.05 98.77 -95.34 98.67797 -95.6352 C 98.59 -95.93 98.5 -96.22 98.39858 -96.51233 C 98.3 -96.8 98.2 -97.1 98.09329 -97.38568 C 97.99 -97.68 97.88 -97.97 97.7623 -98.25495 C 97.65 -98.54 97.53 -98.83 97.4058 -99.11988 C 97.28 -99.41 97.16 -99.69 97.02398 -99.98021 C 96.89 -100.27 96.76 -100.55 96.61708 -100.83569 C 96.52 -101.04 96.42 -101.24 96.31339 -101.43935 C 96.21 -101.64 96.1 -101.84 95.99724 -102.04039 C 95.89 -102.24 95.78 -102.44 95.66869 -102.63872 C 95.56 -102.84 95.44 -103.04 95.32782 -103.23428 C 95.21 -103.43 95.09 -103.63 94.97471 -103.827 C 94.85 -104.02 94.73 -104.22 94.60943 -104.41681 C 94.49 -104.61 94.36 -104.81 94.23205 -105.00365 C 94.1 -105.2 93.97 -105.39 93.84265 -105.58745 C 93.58 -105.98 93.31 -106.36 93.02809 -106.74568 C 92.75 -107.13 92.46 -107.51 92.16636 -107.89103 C 91.58 -108.65 90.96 -109.4 90.30375 -110.14131 C 86.97 -113.93 82.85 -117.47 78.05344 -120.69166 C 67.35 -127.9 53.19 -133.51 37.31832 -136.91545 C 1.46 -144.87 -42.56 -140.23 -69.97248 -125.47235" />
    <path d="M -99.98238 -86.72539 C -99.98 -87.02 -99.98 -87.32 -99.96893 -87.62246 C -99.96 -87.92 -99.95 -88.22 -99.92851 -88.51917 C -99.91 -88.82 -99.89 -89.12 -99.86116 -89.41514 C -99.83 -89.71 -99.8 -90.01 -99.76695 -90.30998 C -99.73 -90.61 -99.69 -90.91 -99.64595 -91.20331 C -99.6 -91.5 -99.55 -91.8 -99.49825 -92.09478 C -99.44 -92.39 -99.39 -92.69 -99.32396 -92.98404 C -99.26 -93.28 -99.19 -93.58 -99.12319 -93.87074 C -99.05 -94.17 -98.98 -94.46 -98.89606 -94.75457 C -98.82 -95.05 -98.73 -95.34 -98.64272 -95.6352 C -98.55 -95.93 -98.46 -96.22 -98.36333 -96.51234 C -98.27 -96.8 -98.16 -97.1 -98.05805 -97.38568 C -97.95 -97.68 -97.84 -97.97 -97.72706 -98.25495 C -97.61 -98.54 -97.49 -98.83 -97.37055 -99.11989 C -97.25 -99.41 -97.12 -99.69 -96.98874 -99.98022 C -96.86 -100.27 -96.72 -100.55 -96.58183 -100.8357 C -96.47 -101.06 -96.35 -101.29 -96.23701 -101.51907 C -96.12 -101.75 -96 -101.97 -95.87622 -102.19905 C -95.75 -102.43 -95.63 -102.65 -95.49956 -102.87555 C -95.37 -103.1 -95.24 -103.32 -95.10714 -103.54846 C -94.97 -103.77 -94.84 -104 -94.69907 -104.21768 C -94.56 -104.44 -94.42 -104.66 -94.27546 -104.88311 C -94.13 -105.1 -93.99 -105.32 -93.83642 -105.54466 C -93.69 -105.76 -93.54 -105.98 -93.38205 -106.20225 C -93.23 -106.42 -93.07 -106.64 -92.91247 -106.85577 C -92.75 -107.07 -92.59 -107.29 -92.42778 -107.50515 C -92.26 -107.72 -92.1 -107.94 -91.9281 -108.15031 C -91.76 -108.36 -91.59 -108.58 -91.41352 -108.79116 C -90.72 -109.64 -89.98 -110.48 -89.20853 -111.30996 C -84.26 -116.61 -77.73 -121.39 -69.97248 -125.47235" />
</svg>