<svg version="1.1" xmlns="http://www.w3.org/2000/svg" viewBox="-120.98237939637453 -143.08283186452766 242.000002 296.5327863614909" fill="none" stroke="black" stroke-width="0.6%" vector-effect="non-scaling-stroke">
    <path d="M 100.01762 60.91463 A 110 57.89958 0 0 1 108.14848 74.40719" />
    <path d="M -108.11323 74.40719 A 110 57.89958 0 0 1 -99.98238 60.91463" />
    <path d="M 100.01762 39.65808 A 110 57.89958 0 0 1 110.01762 63.77892 A 110 57.89958 0 0 1 -109.98238 63.77892 A 110 57.89958 0 0 1 -99.98238 39.65808" />
    <path d="M -99.98238 78.23337 A 100 52.63598 180 0 0 -96.93336 91.13194" />
    <path d="M 96.96861 91.13194 A 100 52.63598 180 0 0 100.01762 78.23337" />
    <path d="M 100.01762 28.86416 A 120 63.16318 0 0 1 120.01762 63.77892 A 120 63.16318 0 0 1 -119.98238 63.77892 L -119.98238 89.28678 A 120 63.16318 180 0 0 120.01762 89.28678" />
    <path d="M -119.98238 63.77892 A 120 63.16318 0 0 1 -99.98238 28.86416" />
    <path d="M 100.01762 -86.71744 A 100 52.63598 0 0 1 -99.98238 -86.71744 L -99.98238 78.23337 C -99.98 78.5 -99.98 78.76 -99.97188 79.02621 C -99.96 79.29 -99.95 79.55 -99.94033 79.81881 C -99.93 80.08 -99.91 80.35 -99.88773 80.61089 C -99.87 80.87 -99.84 81.14 -99.81415 81.4022 C -99.79 81.67 -99.75 81.93 -99.71962 82.19246 C -99.68 82.46 -99.65 82.72 -99.60421 82.98144 C -99.56 83.24 -99.52 83.51 -99.46797 83.76887 C -99.42 84.03 -99.37 84.29 -99.31098 84.55453 C -99.26 84.82 -99.2 85.08 -99.13333 85.33817 C -99.07 85.6 -99 85.86 -98.93509 86.11958 C -98.87 86.38 -98.79 86.64 -98.71637 86.89854 C -98.64 87.16 -98.56 87.42 -98.47728 87.67484 C -98.39 87.93 -98.31 88.19 -98.21791 88.44826 C -98.13 88.71 -98.03 88.96 -97.9384 89.21861 C -97.84 89.47 -97.74 89.73 -97.63887 89.98571 C -97.54 90.24 -97.43 90.5 -97.31946 90.74937" />
    <path d="M -68.57529 -125.36904 A 97 51.0569 0 1 1 -85.10789 -113.74621 A 97 51.0569 0 0 1 -68.57529 -125.36904 Z" />
    <path d="M -65.74671 -123.88035 A 93 48.95146 0 1 1 -81.59756 -112.73681 A 93 48.95146 0 0 1 -65.74671 -123.88035 Z" />
    <path d="M -63.62528 -120.21304 A 90 47.37238 0 0 1 90.01762 -86.71744 C 90.02 -86.5 90.01 -86.29 90.00865 -86.07918 C 90 -85.87 89.99 -85.65 89.98181 -85.44094 C 89.97 -85.23 89.95 -85.02 89.93707 -84.80271 C 89.92 -84.59 89.9 -84.38 89.87441 -84.16451 C 89.85 -83.95 89.82 -83.74 89.79379 -83.52634 C 89.76 -83.31 89.73 -83.1 89.69518 -82.88821 C 89.66 -82.68 89.62 -82.46 89.57856 -82.25017 C 89.54 -82.04 89.49 -81.82 89.44389 -81.61224 C 89.4 -81.4 89.35 -81.19 89.29112 -80.97446 C 89.24 -80.76 89.18 -80.55 89.12022 -80.33689 C 89.06 -80.12 89 -79.91 88.93116 -79.6996 C 88.87 -79.49 88.8 -79.27 88.72389 -79.06265 C 88.65 -78.85 88.58 -78.64 88.49836 -78.42612 C 88.42 -78.21 88.34 -78 88.25453 -77.7901 C 88.17 -77.58 88.08 -77.37 87.99235 -77.15468 C 87.9 -76.94 87.81 -76.73 87.71178 -76.51997 C 87.64 -76.36 87.57 -76.21 87.49173 -76.04963 C 87.42 -75.89 87.34 -75.74 87.26156 -75.57981 C 87.18 -75.42 87.1 -75.27 87.02125 -75.11055 C 86.94 -74.95 86.86 -74.8 86.7708 -74.64191 C 86.69 -74.49 86.6 -74.33 86.5102 -74.17395 C 86.42 -74.02 86.33 -73.86 86.23946 -73.70674 C 86.15 -73.55 86.05 -73.4 85.95857 -73.24034 C 85.86 -73.09 85.77 -72.93 85.66754 -72.7748 C 85.27 -72.15 84.85 -71.54 84.40223 -70.92266 C 83.95 -70.31 83.48 -69.7 82.97575 -69.08987 C 80.32 -65.88 76.91 -62.78 72.83282 -59.89951 C 63.75 -53.47 51.3 -48.22 37.13144 -44.91217 C 14.16 -39.46 -13.25 -39.39 -36.31802 -44.73232 C -69.02 -51.89 -90.66 -69.96 -89.98238 -86.71744 A 90 47.37238 0 0 1 -63.62528 -120.21304 Z" />
    <path d="M 97.3547 90.74937 C 97.46 90.5 97.57 90.24 97.67411 89.98571 C 97.78 89.73 97.88 89.47 97.97364 89.21862 C 98.07 88.96 98.16 88.71 98.25315 88.44826 C 98.34 88.19 98.43 87.93 98.51252 87.67484 C 98.6 87.42 98.68 87.16 98.75162 86.89854 C 98.83 86.64 98.9 86.38 98.97034 86.11959 C 99.04 85.86 99.11 85.6 99.16857 85.33817 C 99.23 85.08 99.29 84.82 99.34622 84.55453 C 99.4 84.29 99.45 84.03 99.50321 83.76887 C 99.55 83.51 99.6 83.24 99.63945 82.98144 C 99.68 82.72 99.72 82.46 99.75486 82.19246 C 99.79 81.93 99.82 81.67 99.84939 81.4022 C 99.88 81.14 99.9 80.87 99.92298 80.61089 C 99.94 80.35 99.96 80.08 99.97557 79.81881 C 99.99 79.55 100 79.29 100.00713 79.02621 C 100.01 78.76 100.02 78.5 100.01762 78.23337" />
    <path d="M 100.01762 -86.71744 L 100.01762 78.23337" />
    <path d="M 120.01762 63.77892 L 120.01762 89.28678" />
    <path d="M 100.01762 -86.71744 C 100.02 -87.02 100.01 -87.32 100.00417 -87.61499 C 100 -87.91 99.98 -88.21 99.96372 -88.51218 C 99.95 -88.81 99.92 -89.11 99.89633 -89.40862 C 99.87 -89.71 99.84 -90.01 99.80206 -90.30393 C 99.77 -90.6 99.73 -90.9 99.68098 -91.19773 C 99.64 -91.5 99.59 -91.79 99.53319 -92.08967 C 99.48 -92.39 99.42 -92.68 99.35879 -92.9794 C 99.3 -93.28 99.23 -93.57 99.15789 -93.86657 C 99.09 -94.16 99.01 -94.46 98.93062 -94.75086 C 98.85 -95.05 98.77 -95.34 98.67713 -95.63195 C 98.59 -95.93 98.5 -96.22 98.39756 -96.50955 C 98.3 -96.8 98.2 -97.09 98.09209 -97.38335 C 97.99 -97.67 97.88 -97.96 97.76089 -98.25307 C 97.65 -98.54 97.53 -98.83 97.40416 -99.11845 C 97.28 -99.41 97.15 -99.69 97.0221 -99.97923 C 96.89 -100.27 96.75 -100.55 96.61494 -100.83515 C 96.52 -101.04 96.41 -101.24 96.31106 -101.43914 C 96.21 -101.64 96.1 -101.84 95.99469 -102.0405 C 95.89 -102.24 95.78 -102.44 95.66592 -102.63916 C 95.55 -102.84 95.44 -103.04 95.32483 -103.23505 C 95.21 -103.43 95.09 -103.63 94.97148 -103.82809 C 94.85 -104.03 94.73 -104.22 94.60595 -104.41822 C 94.48 -104.61 94.36 -104.81 94.22832 -105.00538 C 94.1 -105.2 93.97 -105.4 93.83866 -105.58949 C 93.57 -105.98 93.3 -106.36 93.02356 -106.74834 C 92.74 -107.13 92.46 -107.51 92.16124 -107.89429 C 91.57 -108.65 90.95 -109.4 90.29737 -110.14574 C 86.97 -113.93 82.84 -117.48 78.03771 -120.7018 C 67.32 -127.91 53.14 -133.53 37.2625 -136.9308 C 1.41 -144.87 -42.58 -140.22 -69.97273 -125.4729" />
    <path d="M -99.98238 -86.71744 C -99.98 -87.02 -99.98 -87.32 -99.96892 -87.61499 C -99.96 -87.91 -99.95 -88.21 -99.92848 -88.51218 C -99.91 -88.81 -99.89 -89.11 -99.86108 -89.40862 C -99.83 -89.71 -99.8 -90.01 -99.76681 -90.30393 C -99.73 -90.6 -99.69 -90.9 -99.64574 -91.19773 C -99.6 -91.5 -99.55 -91.79 -99.49795 -92.08967 C -99.44 -92.39 -99.39 -92.68 -99.32355 -92.9794 C -99.26 -93.28 -99.19 -93.57 -99.12265 -93.86657 C -99.05 -94.16 -98.98 -94.46 -98.89538 -94.75086 C -98.82 -95.05 -98.73 -95.34 -98.64188 -95.63195 C -98.55 -95.93 -98.46 -96.22 -98.36232 -96.50955 C -98.26 -96.8 -98.16 -97.09 -98.05684 -97.38335 C -97.95 -97.67 -97.84 -97.96 -97.72564 -98.25308 C -97.61 -98.54 -97.49 -98.83 -97.36891 -99.11846 C -97.25 -99.41 -97.12 -99.69 -96.98686 -99.97923 C -96.86 -100.27 -96.72 -100.55 -96.5797 -100.83516 C -96.47 -101.06 -96.35 -101.29 -96.23465 -101.51891 C -96.12 -101.75 -96 -101.97 -95.87361 -102.19926 C -95.75 -102.43 -95.62 -102.65 -95.4967 -102.87613 C -95.37 -103.1 -95.24 -103.33 -95.10401 -103.54941 C -94.97 -103.77 -94.83 -104 -94.69567 -104.21899 C -94.56 -104.44 -94.42 -104.66 -94.27177 -104.88478 C -94.13 -105.11 -93.98 -105.33 -93.83244 -105.5467 C -93.68 -105.77 -93.53 -105.99 -93.37776 -106.20463 C -93.22 -106.42 -93.07 -106.64 -92.90786 -106.85851 C -92.75 -107.08 -92.59 -107.29 -92.42285 -107.50824 C -92.26 -107.72 -92.09 -107.94 -91.92282 -108.15373 C -91.75 -108.37 -91.58 -108.58 -91.4079 -108.79492 C -90.71 -109.65 -89.98 -110.49 -89.20141 -111.31502 C -84.25 -116.61 -77.73 -121.39 -69.97273 -125.4729" />
</svg>